#!OML:ASF E:\inclinewalkrobotboard\Project 1\Capture day 1\Session 1\subject1.ASF
:FULLY-SPECIFIED
:DEGREES
254
root 8.13516 22.5869 8.56975 -164.835 8.41395 -181.278
lowerback 6.75497 4.12887 -6.79892
upperback 4.19769 5.43207 -0.303362
thorax 0.00424892 2.74136 3.09438
lowerneck -5.71364 -0.731431 -3.56929
upperneck 19.5691 -2.64768 5.19666
head 7.00866 -1.49852 2.02796
rclavicle -2.98177e-014 2.96189e-014
rhumerus -19.0665 -16.3489 -84.354
rradius 27.5856
rwrist 8.00289
rhand -15.5394 -38.0649
rfingers 7.12502
rthumb 10.6444 -67.7753
lclavicle -2.98177e-014 2.96189e-014
lhumerus -27.312 4.65806 84.0414
lradius 20.7901
lwrist -23.7221
lhand -25.9855 -19.7286
lfingers 7.12502
lthumb 0.559756 10.2504
rfemur -10.6161 3.37814 17.3687
rtibia 37.3318
rfoot 4.02323 4.6766
rtoes -22.6476
lfemur -52.8238 -3.28353 -21.1818
ltibia 46.9295
lfoot -27.7391 1.99997
ltoes -58.9708
255
root 8.1033 22.7241 8.3412 -164.662 8.13097 -181.394
lowerback 6.74012 3.59074 -7.3143
upperback 4.29285 4.70216 -0.123051
thorax 0.13813 2.36372 3.63439
lowerneck -6.18722 -0.348207 -4.05489
upperneck 19.6988 -2.01134 5.1591
head 7.10721 -1.21707 2.14764
rclavicle -1.87852e-014 2.98177e-015
rhumerus -20.1315 -16.5263 -83.2954
rradius 26.3825
rwrist 8.99439
rhand -15.9029 -38.14
rfingers 7.12502
rthumb 10.2938 -67.8681
lclavicle -1.87852e-014 2.98177e-015
lhumerus -26.5928 4.1479 84.7056
lradius 22.2286
lwrist -21.9544
lhand -25.8304 -19.326
lfingers 7.12502
lthumb 0.709525 10.6525
rfemur -13.6001 3.03459 17.2322
rtibia 42.2931
rfoot 6.52183 3.03746
rtoes -24.3509
lfemur -51.0672 -3.77553 -21.5457
ltibia 45.349
lfoot -28.0076 1.30459
ltoes -58.3099
256
root 8.0742 22.8512 8.12112 -164.612 8.06013 -181.443
lowerback 6.73201 3.08884 -7.79374
upperback 4.46766 4.03465 0.0467071
thorax 0.366044 2.01439 4.14096
lowerneck -6.98642 0.0340674 -4.50083
upperneck 20.0891 -1.38009 5.10683
head 7.34674 -0.936733 2.25989
rclavicle -3.97569e-016 -2.38542e-015
rhumerus -21.1619 -16.598 -82.3236
rradius 25.3359
rwrist 10.2606
rhand -16.241 -37.9423
rfingers 7.12502
rthumb 9.96763 -67.6863
lclavicle -3.97569e-016 -2.38542e-015
lhumerus -25.4496 3.71446 85.2061
lradius 23.2643
lwrist -20.4584
lhand -25.9653 -19.2962
lfingers 7.12502
lthumb 0.579231 10.6828
rfemur -16.6459 2.90529 17.2456
rtibia 47.1918
rfoot 7.78143 0.896152
rtoes -26.6876
lfemur -49.2036 -4.13164 -21.8052
ltibia 43.7193
lfoot -28.3104 1.03918
ltoes -57.9475
257
root 8.04758 22.968 7.90743 -164.765 8.19516 -181.81
lowerback 6.79011 3.21097 -8.20511
upperback 4.40892 4.17623 -0.349193
thorax 0.260439 2.09148 3.94096
lowerneck -6.44967 -0.0785701 -3.74592
upperneck 19.9368 -1.7295 5.26719
head 7.21542 -1.05579 2.15344
rclavicle 9.93923e-017 -1.91827e-014
rhumerus -23.387 -19.0276 -81.0786
rradius 24.7386
rwrist 12.1117
rhand -15.9592 -37.511
rfingers 7.12502
rthumb 10.2395 -67.2417
lclavicle 9.93923e-017 -1.91827e-014
lhumerus -24.6565 1.06065 85.4858
lradius 24.3132
lwrist -19.3204
lhand -26.3124 -19.7506
lfingers 7.12502
lthumb 0.244014 10.229
rfemur -19.6598 2.8393 16.9284
rtibia 51.8606
rfoot 6.46361 -0.335124
rtoes -24.5588
lfemur -47.1176 -4.46491 -22.4483
ltibia 41.9802
lfoot -28.5957 0.946565
ltoes -57.7975
258
root 8.02209 23.0778 7.69981 -164.95 8.21152 -182.229
lowerback 6.89426 3.06374 -8.7777
upperback 4.45447 3.96033 -0.539993
thorax 0.262938 1.98211 4.07477
lowerneck -5.86411 -0.0405885 -3.95539
upperneck 19.4573 -1.75354 5.82534
head 6.96027 -1.0483 2.36587
rclavicle 2.69726e-014 -4.26145e-014
rhumerus -25.1635 -20.9713 -79.7783
rradius 24.0986
rwrist 14.3211
rhand -15.5039 -37.1868
rfingers 7.12502
rthumb 10.6787 -66.8955
lclavicle 2.69726e-014 -4.26145e-014
lhumerus -24.0201 -0.578001 85.7326
lradius 25.7053
lwrist -18.793
lhand -26.5279 -19.7625
lfingers 7.12502
lthumb 0.0358726 10.2172
rfemur -22.7061 2.6868 16.5972
rtibia 56.0574
rfoot 4.17187 -0.816982
rtoes -23.7231
lfemur -45.064 -4.89682 -23.1604
ltibia 40.3286
lfoot -28.8375 0.656409
ltoes -57.4666
259
root 7.99613 23.1835 7.50097 -165.081 8.03514 -182.367
lowerback 6.99162 2.70681 -9.10951
upperback 4.48062 3.46399 -0.458225
thorax 0.284862 1.72808 4.38291
lowerneck -7.25923 -0.972696 -2.93633
upperneck 20.9498 -0.651321 4.35694
head 7.65415 0.273079 1.9268
rclavicle 3.6887e-014 -2.36802e-014
rhumerus -26.8138 -22.0136 -78.3624
rradius 23.5127
rwrist 16.0575
rhand -15.2699 -36.9538
rfingers 7.12502
rthumb 10.9044 -66.6507
lclavicle 3.6887e-014 -2.36802e-014
lhumerus -23.3678 -1.34415 85.9986
lradius 27.0546
lwrist -18.6571
lhand -26.74 -19.2102
lfingers 7.12502
lthumb -0.169011 10.7695
rfemur -25.8252 2.50246 16.5991
rtibia 59.6507
rfoot 1.36181 -1.2077
rtoes -24.5055
lfemur -43.1321 -5.33298 -23.5405
ltibia 38.741
lfoot -29.0033 0.541314
ltoes -57.3813
260
root 7.97119 23.2827 7.30243 -165.176 7.78354 -182.32
lowerback 7.02769 2.31503 -9.21001
upperback 4.52064 2.9368 -0.293343
thorax 0.370799 1.45646 4.65523
lowerneck -6.15497 -0.895636 -4.22329
upperneck 20.2426 -0.590323 5.39995
head 7.22477 0.277471 2.47563
rclavicle 1.03368e-014 8.69683e-015
rhumerus -28.4237 -22.5141 -76.9963
rradius 23.094
rwrist 16.9357
rhand -14.8334 -37.32
rfingers 7.12502
rthumb 11.3255 -66.9942
lclavicle 1.03368e-014 8.69683e-015
lhumerus -22.5909 -1.6611 86.1558
lradius 28.2126
lwrist -18.8621
lhand -27.1974 -19.2505
lfingers 7.12502
lthumb -0.610766 10.7284
rfemur -28.9437 2.33561 16.7992
rtibia 62.5832
rfoot -1.78034 -1.687
rtoes -27.7878
lfemur -41.2339 -5.76476 -23.7051
ltibia 37.121
lfoot -29.0952 0.675697
ltoes -57.604
261
root 7.94887 23.3748 7.10827 -165.313 7.62375 -182.349
lowerback 7.1177 2.37233 -9.08692
upperback 4.37199 2.99594 -0.513808
thorax 0.171123 1.50178 4.3433
lowerneck -6.53227 -1.00583 -2.7846
upperneck 20.9643 -0.747505 4.73364
head 7.531 0.288682 2.01735
rclavicle -9.93923e-015 1.63997e-014
rhumerus -31.1708 -24.5752 -75.295
rradius 23.1053
rwrist 17.6984
rhand -14.1907 -38.0389
rfingers 7.12502
rthumb 11.9452 -67.6781
lclavicle -9.93923e-015 1.63997e-014
lhumerus -22.2674 -3.80647 86.1797
lradius 29.5987
lwrist -18.6397
lhand -27.6601 -19.5131
lfingers 7.12502
lthumb -1.05767 10.464
rfemur -32.0658 2.27627 16.9086
rtibia 64.9546
rfoot -4.75912 -2.40746
rtoes -30.4895
lfemur -39.3611 -6.07292 -23.9683
ltibia 35.5405
lfoot -29.1483 0.753515
ltoes -57.6642
262
root 7.92818 23.4625 6.92559 -165.49 7.53491 -182.432
lowerback 7.22664 1.79978 -9.60073
upperback 4.54367 2.21445 -0.132059
thorax 0.37878 1.0876 5.09581
lowerneck -7.14361 -0.579805 -3.77372
upperneck 21.2764 -0.0473103 4.79765
head 7.71609 0.544867 2.27236
rclavicle 1.63997e-014 1.46107e-014
rhumerus -32.2484 -24.4841 -73.8698
rradius 22.6891
rwrist 18.3007
rhand -13.9524 -38.0176
rfingers 7.12502
rthumb 12.175 -67.6433
lclavicle 1.63997e-014 1.46107e-014
lhumerus -21.5892 -2.82467 86.282
lradius 30.9065
lwrist -18.7584
lhand -27.9144 -19.4589
lfingers 7.12502
lthumb -1.30328 10.5168
rfemur -35.2434 2.34895 16.9483
rtibia 66.8767
rfoot -7.87446 -3.51327
rtoes -31.7787
lfemur -37.5696 -6.20671 -24.3033
ltibia 34.0667
lfoot -29.1872 0.924927
ltoes -57.9246
263
root 7.90768 23.5439 6.74391 -165.654 7.46171 -182.496
lowerback 7.19441 1.69252 -9.8092
upperback 4.55392 2.06396 -0.0590237
thorax 0.425325 1.00496 5.30294
lowerneck -6.87408 -0.565405 -3.59067
upperneck 21.2776 -0.0141901 4.65213
head 7.66653 0.565707 2.19476
rclavicle 4.32357e-015 1.68967e-015
rhumerus -34.4308 -25.8606 -71.9666
rradius 22.5153
rwrist 18.7479
rhand -14.2337 -37.2423
rfingers 7.12502
rthumb 11.9038 -66.8838
lclavicle 4.32357e-015 1.68967e-015
lhumerus -20.8667 -3.52232 86.3586
lradius 31.8972
lwrist -18.3976
lhand -27.8173 -19.4797
lfingers 7.12502
lthumb -1.20944 10.4966
rfemur -38.3712 2.45199 16.9937
rtibia 68.2862
rfoot -10.8217 -4.91331
rtoes -32.4219
lfemur -35.7776 -6.2685 -24.646
ltibia 32.5551
lfoot -29.2094 1.12068
ltoes -58.4094
264
root 7.88734 23.6181 6.5622 -165.881 7.46402 -182.578
lowerback 7.45922 1.0079 -10.0057
upperback 4.73197 1.14324 0.13875
thorax 0.61626 0.531081 5.69089
lowerneck -7.94974 -0.00797892 -4.5562
upperneck 21.8741 0.890986 4.74794
head 8.01512 0.924444 2.48941
rclavicle 4.57205e-015 3.67752e-015
rhumerus -35.1255 -25.5709 -70.988
rradius 21.9963
rwrist 19.1165
rhand -14.718 -36.3375
rfingers 7.12502
rthumb 11.4367 -66.0056
lclavicle 4.57205e-015 3.67752e-015
lhumerus -19.952 -2.47139 86.0614
lradius 32.775
lwrist -17.7092
lhand -28.1176 -19.5113
lfingers 7.12502
lthumb -1.49949 10.4631
rfemur -41.3487 2.61659 16.9879
rtibia 69.1095
rfoot -13.1014 -6.29489
rtoes -32.0492
lfemur -33.8489 -6.2837 -25.0378
ltibia 30.9123
lfoot -29.2384 1.23358
ltoes -58.8602
265
root 7.87046 23.6836 6.38453 -166.175 7.19824 -182.847
lowerback 7.61792 1.30983 -9.86952
upperback 4.40533 1.49902 -0.311393
thorax 0.132603 0.746247 5.10463
lowerneck -6.39859 -0.425175 -3.04831
upperneck 21.6171 0.177253 4.60831
head 7.68436 0.722536 2.11057
rclavicle 9.0447e-015 -1.47101e-014
rhumerus -38.9644 -27.884 -68.7538
rradius 22.3153
rwrist 18.8632
rhand -15.1721 -35.7199
rfingers 7.12502
rthumb 10.9987 -65.4118
lclavicle 9.0447e-015 -1.47101e-014
lhumerus -19.793 -6.01385 85.9945
lradius 33.4139
lwrist -16.1311
lhand -28.8913 -19.2059
lfingers 7.12502
lthumb -2.2467 10.762
rfemur -44.2089 2.47953 16.7908
rtibia 69.3857
rfoot -14.8439 -7.29433
rtoes -29.9645
lfemur -31.9959 -6.53931 -25.6052
ltibia 29.481
lfoot -29.3512 1.24448
ltoes -59.2663
266
root 7.85591 23.7406 6.21781 -166.382 7.1809 -183.041
lowerback 7.57655 0.642239 -10.6009
upperback 4.85721 0.637238 0.189763
thorax 0.778097 0.260775 6.11814
lowerneck -7.94622 0.157215 -4.35198
upperneck 22.0981 1.12213 4.68553
head 8.07907 1.05178 2.46042
rclavicle 1.46107e-014 -5.1684e-015
rhumerus -38.7617 -27.5003 -67.6284
rradius 21.6804
rwrist 19.0985
rhand -15.199 -35.8909
rfingers 7.12502
rthumb 10.9728 -65.5841
lclavicle 1.46107e-014 -5.1684e-015
lhumerus -18.2142 -4.46029 86.0588
lradius 33.7114
lwrist -15.7661
lhand -29.2954 -19.34
lfingers 7.12502
lthumb -2.63704 10.6234
rfemur -47.2311 2.53168 16.5868
rtibia 69.3576
rfoot -16.3353 -7.75392
rtoes -28.3239
lfemur -30.3507 -6.55489 -26.0856
ltibia 28.159
lfoot -29.4951 1.41901
ltoes -59.6976
267
root 7.84742 23.7925 6.05102 -166.555 7.00604 -182.958
lowerback 7.64711 0.556196 -10.5176
upperback 4.87346 0.52419 0.18574
thorax 0.776339 0.207184 6.07463
lowerneck -8.08068 0.110994 -4.0046
upperneck 22.3863 1.04372 4.61696
head 8.20677 1.04663 2.38117
rclavicle -6.4605e-015 1.39149e-015
rhumerus -40.8294 -29.3573 -65.5022
rradius 21.1911
rwrist 20.25
rhand -14.6427 -36.6268
rfingers 7.12502
rthumb 11.5094 -66.2908
lclavicle -6.4605e-015 1.39149e-015
lhumerus -17.2188 -5.36896 85.872
lradius 34.0206
lwrist -15.5588
lhand -29.6029 -19.6928
lfingers 7.12502
lthumb -2.934 10.2667
rfemur -49.9682 2.54792 16.7161
rtibia 68.7127
rfoot -17.7201 -8.07087
rtoes -28.8638
lfemur -28.7059 -6.45832 -26.2087
ltibia 26.7644
lfoot -29.4992 1.81607
ltoes -60.6146
